<?xml version="1.0" encoding="UTF-8"?>
<!DOCTYPE svg PUBLIC "-//W3C//DTD SVG 1.1//EN" "http://www.w3.org/Graphics/SVG/1.1/DTD/svg11.dtd">
<!-- Creator: CorelDRAW 2019 (64-Bit) -->
<svg xmlns="http://www.w3.org/2000/svg" xml:space="preserve" width="5.33333in" height="5.33333in" version="1.1" style="shape-rendering:geometricPrecision; text-rendering:geometricPrecision; image-rendering:optimizeQuality; fill-rule:evenodd; clip-rule:evenodd"
viewBox="0 0 5333.33 5333.33"
 xmlns:xlink="http://www.w3.org/1999/xlink"
 xmlns:xodm="http://www.corel.com/coreldraw/odm/2003">
 <defs>
  <style type="text/css">
   <![CDATA[
    .fil1 {fill:none}
    .fil0 {fill:#EFEFEF}
   ]]>
  </style>
   <clipPath id="id0">
    <path d="M2666.67 2416.66c138.07,0 250,111.93 250,250 0,138.07 -111.93,250 -250,250 -138.07,0 -250,-111.93 -250,-250 0,-138.07 111.93,-250 250,-250z"/>
   </clipPath>
    <clipPath id="id1">
     <path d="M2666.67 2416.66c61.41,0 117.63,22.15 161.15,58.89l0 382.23c-43.52,36.74 -99.74,58.89 -161.15,58.89 -61.41,0 -117.63,-22.15 -161.15,-58.89l0 -382.23c43.52,-36.74 99.74,-58.89 161.15,-58.89z"/>
    </clipPath>
    <clipPath id="id2">
     <path d="M2666.67 2416.66c138.07,0 250,111.93 250,250 0,138.07 -111.93,250 -250,250 -138.07,0 -250,-111.93 -250,-250 0,-138.07 111.93,-250 250,-250z"/>
    </clipPath>
 </defs>
 <g id="Layer_x0020_1">
  <metadata id="CorelCorpID_0Corel-Layer"/>
  <path class="fil0" d="M2666.67 2416.66c138.07,0 250,111.93 250,250 0,138.07 -111.93,250 -250,250 -138.07,0 -250,-111.93 -250,-250 0,-138.07 111.93,-250 250,-250z"/>
  <g style="clip-path:url(#id0)">
   <g id="_2236197682128">
   </g>
   <g style="clip-path:url(#id1)">
    <image x="2505.51" y="2401.66" width="322.31" height="530.01" xlink:href="PASSENGER_Images\PASSENGER_ImgID1.png"/>
   </g>
   <g style="clip-path:url(#id2)">
   </g>
  </g>
  <path class="fil1" d="M2666.67 2416.66c138.07,0 250,111.93 250,250 0,138.07 -111.93,250 -250,250 -138.07,0 -250,-111.93 -250,-250 0,-138.07 111.93,-250 250,-250z"/>
 </g>
</svg>
